<svg xmlns="http://www.w3.org/2000/svg" xmlns:xlink="http://www.w3.org/1999/xlink" width="500" zoomAndPan="magnify" viewBox="0 0 375 374.999991" height="500" preserveAspectRatio="xMidYMid meet" version="1.2"><defs><clipPath id="3836dde0ec"><path d="M 14.765625 91 L 360.515625 91 L 360.515625 375 L 14.765625 375 Z M 14.765625 91 "/></clipPath></defs><g id="7a71ebcd03"><path style=" stroke:none;fill-rule:nonzero;fill:#000000;fill-opacity:1;" d="M 116.796875 114.890625 L 109.671875 115.292969 C 108.339844 91.617188 112.019531 67.972656 120.027344 48.710938 C 125.304688 36.019531 132.246094 25.632812 140.53125 17.867188 C 143.761719 17.976562 146.988281 18.371094 150.15625 19.03125 C 124.703125 38.171875 114.839844 80.101562 116.796875 114.890625 Z M 235.957031 59.347656 C 232.542969 46.183594 225.214844 27.839844 209.671875 15.21875 C 196.121094 4.210938 178.53125 0.136719 163.632812 4.253906 C 167.734375 5.558594 171.503906 7.457031 175.03125 9.808594 C 185.324219 9.671875 196.222656 13.484375 205.179688 20.753906 C 219.21875 32.15625 225.910156 49.007812 229.054688 61.132812 C 233.164062 76.960938 233.863281 93.730469 234.546875 109.949219 L 241.675781 109.652344 C 240.972656 93.070312 240.25 75.910156 235.957031 59.347656 Z M 235.957031 59.347656 "/><g clip-rule="nonzero" clip-path="url(#3836dde0ec)"><path style=" stroke:none;fill-rule:nonzero;fill:#004aad;fill-opacity:1;" d="M 36.039062 99.644531 C 32.175781 174.816406 24.808594 274.273438 14.773438 355.527344 C 105.554688 367.722656 197.011719 374.863281 291.652344 374.042969 C 313.425781 353.488281 335.203125 332.929688 360.226562 312.652344 C 332.675781 242.472656 318.824219 166.945312 319.664062 91.558594 L 266.808594 91.113281 Z M 36.039062 99.644531 "/></g><path style=" stroke:none;fill-rule:nonzero;fill:#000000;fill-opacity:1;" d="M 352.183594 307.269531 C 348.019531 305.941406 343.953125 304.316406 339.78125 302.992188 C 335.328125 301.566406 330.839844 300.242188 326.320312 299.019531 C 323.640625 298.394531 320.890625 297.652344 319.65625 298.472656 C 317.886719 301.996094 314.640625 312.121094 312.175781 318.078125 C 306.238281 333.40625 299.199219 348.480469 289.375 361.734375 C 296.859375 348.589844 303.792969 334.027344 309.207031 320.75 C 311.339844 315.292969 313.390625 309.800781 315.414062 304.300781 C 316.351562 302.046875 316.855469 299.550781 318.15625 297.476562 C 317.867188 296.917969 317.75 296.230469 317.488281 295.664062 C 316.855469 293.828125 316.058594 292.058594 315.410156 290.230469 C 312.980469 282.359375 312.023438 274.109375 310.324219 266.066406 C 305.863281 243.789062 303.234375 221.21875 301.316406 198.597656 C 299.191406 176.214844 297.980469 153.761719 296.878906 131.3125 C 296.519531 122.15625 296.402344 112.984375 295.59375 103.851562 C 299.136719 127.503906 298.996094 151.527344 300.957031 175.328125 C 302.808594 197.851562 304.679688 221.316406 307.929688 242.949219 C 309.375 252.289062 311.148438 261.574219 312.933594 270.859375 C 314.164062 276.792969 314.992188 282.824219 316.683594 288.65625 C 317.480469 291.085938 318.886719 293.804688 319.554688 295.925781 C 319.625 296.117188 319.722656 296.316406 319.816406 296.515625 C 324.820312 295.460938 337.789062 300.972656 341.25 302.269531 C 344.953125 303.800781 348.523438 305.632812 352.183594 307.269531 Z M 278.507812 309.535156 C 276.214844 285.824219 273.921875 262.109375 272.246094 238.34375 C 269.539062 199.5625 269.953125 160.671875 270.109375 121.832031 C 270.109375 115.625 269.976562 109.421875 269.929688 103.21875 C 269.40625 109.285156 269.03125 115.359375 268.75 121.445312 C 267.878906 159.855469 267.976562 198.34375 270.355469 236.703125 C 272.25 264.578125 275.058594 292.386719 277.808594 320.191406 C 278.796875 332.210938 280.945312 344.101562 282.269531 356.070312 C 282.164062 340.507812 279.835938 325.03125 278.507812 309.535156 Z M 212.898438 108.5 C 212.238281 93.609375 211.25 78.375 207.417969 63.605469 C 204.003906 50.441406 196.675781 32.097656 181.132812 19.476562 C 166.230469 7.375 146.441406 3.648438 130.726562 9.988281 C 113.933594 16.757812 100.363281 31.625 91.488281 52.964844 C 83.886719 71.25 80.199219 93.484375 80.976562 115.945312 C 78.636719 117.183594 77.042969 119.640625 77.042969 122.472656 C 77.042969 126.558594 80.351562 129.867188 84.433594 129.867188 C 88.515625 129.867188 91.824219 126.558594 91.824219 122.472656 C 91.824219 119.738281 90.335938 117.355469 88.125 116.078125 C 86.722656 76.9375 100.078125 30.042969 133.398438 16.605469 C 146.746094 11.21875 163.71875 14.523438 176.640625 25.015625 C 190.679688 36.417969 197.371094 53.269531 200.515625 65.394531 C 204.164062 79.453125 205.125 94.257812 205.773438 108.757812 C 203.628906 110.046875 202.1875 112.394531 202.1875 115.089844 C 202.1875 119.171875 205.496094 122.480469 209.578125 122.480469 C 213.660156 122.480469 216.96875 119.171875 216.96875 115.089844 C 216.957031 112.210938 215.304688 109.71875 212.898438 108.5 Z M 212.898438 108.5 "/><path style=" stroke:none;fill-rule:nonzero;fill:#f2f2f2;fill-opacity:1;" d="M 137.917969 286.105469 C 164.039062 301.171875 195.210938 277.203125 199.09375 258.800781 C 198.132812 259.125 226.25 253.710938 226.25 253.710938 C 222.851562 284.402344 198.113281 311.316406 167.976562 318.042969 C 137.84375 324.773438 104.417969 311.316406 86.699219 286.027344 C 68.980469 260.738281 67.582031 225.238281 82.558594 198.238281 C 97.066406 172.085938 126.996094 154.554688 156.792969 157.136719 C 186.589844 159.71875 213.886719 183.738281 217.96875 213.363281 C 176.261719 231.28125 148.917969 241.023438 114.367188 253.328125 C 115.875 264.226562 125.816406 279.125 137.917969 286.105469 Z M 109.40625 232.609375 C 136.351562 221.160156 165.878906 211.296875 194.082031 199.480469 C 183.011719 180.644531 157.390625 171.9375 137.128906 180.117188 C 116.871094 188.296875 103.527344 211.699219 109.40625 232.609375 Z M 109.40625 232.609375 "/></g></svg>