<svg xmlns="http://www.w3.org/2000/svg" xmlns:xlink="http://www.w3.org/1999/xlink" width="500" zoomAndPan="magnify" viewBox="0 0 375 374.999991" height="500" preserveAspectRatio="xMidYMid meet" version="1.2"><defs><clipPath id="ef5d7be5e4"><path d="M 0 11.484375 L 375 11.484375 L 375 363.234375 L 0 363.234375 Z M 0 11.484375 "/></clipPath></defs><g id="a7fbd2dc61"><g clip-rule="nonzero" clip-path="url(#ef5d7be5e4)"><path style=" stroke:none;fill-rule:nonzero;fill:#082026;fill-opacity:1;" d="M 256.160156 363.171875 L 126.574219 363.171875 L 126.574219 144.398438 L 97.230469 115.054688 L 0 115.054688 L 0 99.984375 C 0 51.242188 39.660156 11.585938 88.398438 11.585938 L 374.699219 11.585938 L 374.699219 26.65625 C 374.699219 75.402344 335.039062 115.054688 286.300781 115.054688 L 199.691406 115.054688 L 126.363281 41.726562 L 88.40625 41.726562 C 61.488281 41.726562 38.777344 60.074219 32.121094 84.921875 L 109.71875 84.921875 L 256.167969 231.367188 L 256.167969 363.171875 Z M 156.707031 333.039062 L 226.023438 333.039062 L 226.023438 243.851562 L 156.707031 174.53125 Z M 212.171875 84.914062 L 286.300781 84.914062 C 313.21875 84.914062 335.933594 66.566406 342.585938 41.71875 L 168.980469 41.71875 Z M 212.171875 84.914062 "/></g></g></svg>