<?xml version="1.0" encoding="UTF-8"?>
<svg xmlns="http://www.w3.org/2000/svg" xmlns:xlink="http://www.w3.org/1999/xlink" width="3000.75" height="3000" viewBox="0 0 3000.75 3000">
<defs>
<clipPath id="clip-0">
<path clip-rule="nonzero" d="M 0.460938 0 L 3000.460938 0 L 3000.460938 3000 L 0.460938 3000 Z M 0.460938 0 "/>
</clipPath>
</defs>
<path fill-rule="evenodd" fill="rgb(100%, 100%, 100%)" fill-opacity="1" d="M 3000.460938 0 L 0.460938 0 L 0.460938 3000 L 3000.460938 3000 L 3000.460938 0 "/>
<g clip-path="url(#clip-0)">
<path fill-rule="evenodd" fill="rgb(100%, 100%, 100%)" fill-opacity="1" d="M 3000.460938 0 L 0.460938 0 L 0.460938 3000 L 3000.460938 3000 L 3000.460938 0 "/>
</g>
<path fill-rule="evenodd" fill="rgb(93.359375%, 96.875%, 96.484375%)" fill-opacity="1" d="M 562.9375 2434.148438 L 2531.730469 2434.148438 C 2531.730469 2434.148438 2631.570312 2182.777344 2593.210938 1920.640625 C 2532.898438 1508.578125 2364.191406 1590.691406 2443.210938 1266.988281 C 2512.449219 983.359375 2249.460938 352.890625 1775.609375 608.351562 C 1477.03125 769.320312 1292.21875 800.558594 967.933594 767.609375 C 642.867188 734.589844 423.53125 1105.289062 514.957031 1458.601562 C 595.015625 1768 248.210938 2026.089844 562.9375 2434.148438 "/>
<path fill-rule="evenodd" fill="rgb(79.296875%, 90.625%, 89.451599%)" fill-opacity="1" d="M 1007.21875 866.109375 C 1016.289062 866.128906 1023.628906 873.519531 1023.601562 882.589844 C 1023.578125 891.671875 1016.191406 899.011719 1007.121094 898.980469 C 998.042969 898.949219 990.699219 891.570312 990.726562 882.488281 C 990.757812 873.421875 998.144531 866.078125 1007.21875 866.109375 Z M 1090.800781 866.371094 C 1099.871094 866.390625 1107.21875 873.78125 1107.191406 882.859375 C 1107.160156 891.929688 1099.769531 899.269531 1090.699219 899.238281 C 1081.628906 899.210938 1074.28125 891.828125 1074.308594 882.75 C 1074.339844 873.679688 1081.730469 866.339844 1090.800781 866.371094 Z M 963.699219 746.339844 L 958.242188 730.121094 C 957.578125 728.140625 955.613281 726.800781 953.394531 726.789062 L 920.214844 726.691406 C 917.402344 726.679688 915.113281 728.800781 915.105469 731.410156 C 915.097656 734.03125 917.375 736.160156 920.1875 736.171875 L 949.628906 736.261719 L 989.789062 855.640625 C 990.453125 857.609375 992.417969 858.960938 994.640625 858.960938 L 1103.800781 859.300781 C 1106.621094 859.308594 1108.910156 857.191406 1108.921875 854.578125 C 1108.921875 851.960938 1106.648438 849.828125 1103.828125 849.820312 L 998.402344 849.488281 L 995.414062 840.609375 L 1105.160156 828.398438 C 1108 828.078125 1110.28125 825.921875 1110.75 823.109375 C 1113.019531 809.550781 1119.519531 770.628906 1122.261719 754.25 C 1122.570312 752.398438 1122.050781 750.511719 1120.839844 749.078125 C 1119.628906 747.648438 1117.859375 746.820312 1115.980469 746.808594 Z M 1003.050781 767.738281 L 1004.339844 816.339844 C 1004.398438 818.550781 1006.238281 820.289062 1008.449219 820.238281 C 1010.660156 820.179688 1012.398438 818.339844 1012.351562 816.128906 L 1011.050781 767.519531 C 1010.988281 765.308594 1009.148438 763.570312 1006.941406 763.628906 C 1004.730469 763.691406 1002.988281 765.53125 1003.050781 767.738281 Z M 1029.761719 767.820312 L 1030.941406 812.050781 C 1031 814.261719 1032.839844 816.011719 1035.050781 815.949219 C 1037.261719 815.890625 1039 814.050781 1038.941406 811.839844 L 1037.769531 767.609375 C 1037.710938 765.398438 1035.871094 763.648438 1033.660156 763.710938 C 1031.449219 763.769531 1029.699219 765.609375 1029.761719 767.820312 Z M 1056.691406 767.871094 L 1057.378906 808.078125 C 1057.410156 810.289062 1059.238281 812.050781 1061.449219 812.019531 C 1063.660156 811.980469 1065.421875 810.148438 1065.378906 807.941406 L 1064.691406 767.730469 C 1064.648438 765.519531 1062.828125 763.75 1060.621094 763.789062 C 1058.410156 763.828125 1056.648438 765.660156 1056.691406 767.871094 Z M 1083.398438 767.949219 L 1084.03125 804.808594 C 1084.070312 807.019531 1085.890625 808.78125 1088.109375 808.738281 C 1090.308594 808.699219 1092.078125 806.878906 1092.039062 804.671875 L 1091.410156 767.808594 C 1091.371094 765.601562 1089.539062 763.839844 1087.339844 763.878906 C 1085.128906 763.910156 1083.359375 765.738281 1083.398438 767.949219 "/>
<path fill-rule="evenodd" fill="rgb(79.296875%, 90.625%, 89.451599%)" fill-opacity="1" d="M 531.726562 1602.769531 C 474.664062 1602.769531 428.339844 1649.101562 428.339844 1706.160156 C 428.339844 1763.21875 474.664062 1809.550781 531.726562 1809.550781 C 588.785156 1809.550781 635.113281 1763.21875 635.113281 1706.160156 C 635.113281 1649.101562 588.785156 1602.769531 531.726562 1602.769531 "/>
<path fill-rule="evenodd" fill="rgb(100%, 100%, 100%)" fill-opacity="1" d="M 523.148438 1652.648438 C 507.566406 1654.359375 495.441406 1667.558594 495.441406 1683.601562 C 495.441406 1700.800781 509.382812 1714.738281 526.578125 1714.738281 C 529.976562 1714.738281 533.476562 1714.738281 536.871094 1714.738281 C 544.59375 1714.738281 550.855469 1721 550.855469 1728.71875 C 550.855469 1736.441406 544.59375 1742.710938 536.871094 1742.710938 L 516.835938 1742.710938 C 515.710938 1742.710938 514.632812 1742.261719 513.835938 1741.460938 C 513.042969 1740.671875 512.59375 1739.589844 512.59375 1738.460938 C 512.59375 1736.859375 512.59375 1735.769531 512.59375 1735.769531 C 512.59375 1731.039062 508.753906 1727.191406 504.019531 1727.191406 C 499.285156 1727.191406 495.441406 1731.039062 495.441406 1735.769531 L 495.441406 1738.460938 C 495.441406 1744.140625 497.695312 1749.578125 501.707031 1753.589844 C 505.722656 1757.609375 511.160156 1759.859375 516.835938 1759.859375 L 523.148438 1759.859375 L 523.148438 1769.289062 C 523.148438 1774.03125 526.992188 1777.871094 531.726562 1777.871094 C 536.460938 1777.871094 540.300781 1774.03125 540.300781 1769.289062 L 540.300781 1759.671875 C 555.882812 1757.960938 568.007812 1744.761719 568.007812 1728.71875 C 568.007812 1711.519531 554.066406 1697.578125 536.871094 1697.578125 C 533.476562 1697.578125 529.976562 1697.578125 526.578125 1697.578125 C 518.855469 1697.578125 512.59375 1691.320312 512.59375 1683.601562 C 512.59375 1675.871094 518.855469 1669.609375 526.578125 1669.609375 L 546.613281 1669.609375 C 547.738281 1669.609375 548.816406 1670.058594 549.613281 1670.859375 C 550.410156 1671.648438 550.855469 1672.730469 550.855469 1673.859375 C 550.855469 1675.460938 550.855469 1676.550781 550.855469 1676.550781 C 550.855469 1681.289062 554.699219 1685.128906 559.433594 1685.128906 C 564.164062 1685.128906 568.007812 1681.289062 568.007812 1676.550781 L 568.007812 1673.859375 C 568.007812 1668.179688 565.753906 1662.738281 561.742188 1658.730469 C 557.730469 1654.710938 552.289062 1652.460938 546.613281 1652.460938 L 540.300781 1652.460938 L 540.300781 1643.03125 C 540.300781 1638.289062 536.460938 1634.449219 531.726562 1634.449219 C 526.992188 1634.449219 523.148438 1638.289062 523.148438 1643.03125 L 523.148438 1652.648438 "/>
<path fill-rule="evenodd" fill="rgb(62.304688%, 78.709412%, 81.639099%)" fill-opacity="1" d="M 2248.460938 746.050781 L 2214.140625 746.050781 C 2214.140625 746.050781 2205.160156 836.21875 2200.800781 888.238281 C 2200.199219 895.371094 2202.621094 902.429688 2207.460938 907.691406 C 2212.300781 912.960938 2219.128906 915.960938 2226.289062 915.960938 C 2260.941406 915.960938 2319.808594 915.960938 2354.460938 915.960938 C 2361.609375 915.960938 2368.441406 912.960938 2373.289062 907.691406 C 2378.128906 902.429688 2380.539062 895.371094 2379.949219 888.238281 C 2375.589844 836.21875 2366.609375 746.050781 2366.609375 746.050781 L 2331.429688 746.050781 L 2331.429688 731.941406 C 2331.429688 720.941406 2327.058594 710.390625 2319.28125 702.609375 C 2311.5 694.828125 2300.941406 690.460938 2289.941406 690.460938 C 2278.941406 690.460938 2268.390625 694.828125 2260.609375 702.609375 C 2252.828125 710.390625 2248.460938 720.941406 2248.460938 731.941406 Z M 2320.878906 746.050781 L 2259 746.050781 L 2259 731.941406 C 2259 723.738281 2262.261719 715.871094 2268.058594 710.070312 C 2273.871094 704.269531 2281.738281 701.011719 2289.941406 701.011719 C 2298.140625 701.011719 2306.011719 704.269531 2311.820312 710.070312 C 2317.621094 715.871094 2320.878906 723.738281 2320.878906 731.941406 L 2320.878906 746.050781 "/>
<path fill-rule="evenodd" fill="rgb(12.889099%, 19.604492%, 40.795898%)" fill-opacity="1" d="M 2225.640625 1064.089844 L 809.488281 1064.089844 L 809.488281 2366.0625 L 2225.640625 2366.0625 L 2225.640625 1064.089844 "/>
<path fill-rule="evenodd" fill="rgb(14.109802%, 22.705078%, 61.521912%)" fill-opacity="1" d="M 2225.640625 1064.089844 L 809.488281 1064.089844 L 809.488281 1601.429688 L 2225.640625 1601.429688 L 2225.640625 1064.089844 "/>
<path fill-rule="evenodd" fill="rgb(3.100586%, 64.256287%, 86.71875%)" fill-opacity="1" d="M 2275.171875 2366.0625 L 759.964844 2366.0625 L 759.964844 2434.148438 L 2275.171875 2434.148438 L 2275.171875 2366.0625 "/>
<path fill-rule="evenodd" fill="rgb(3.100586%, 64.256287%, 86.71875%)" fill-opacity="1" d="M 1307.621094 1755.441406 L 911.714844 1755.441406 L 911.714844 2434.148438 L 1307.621094 2434.148438 L 1307.621094 1755.441406 "/>
<path fill-rule="evenodd" fill="rgb(3.100586%, 64.256287%, 86.71875%)" fill-opacity="1" d="M 2123.421875 1755.441406 L 1415.261719 1755.441406 L 1415.261719 2195.285156 L 2123.421875 2195.285156 L 2123.421875 1755.441406 "/>
<path fill-rule="evenodd" fill="rgb(7.102966%, 17.30957%, 31.809998%)" fill-opacity="1" d="M 2082.269531 1793.78125 L 1456.410156 1793.78125 L 1456.410156 2156.945312 L 2082.269531 2156.945312 L 2082.269531 1793.78125 "/>
<path fill-rule="evenodd" fill="rgb(7.102966%, 17.30957%, 31.809998%)" fill-opacity="1" d="M 1269.78125 1795.359375 L 949.554688 1795.359375 L 949.554688 2434.148438 L 1269.78125 2434.148438 L 1269.78125 1795.359375 "/>
<path fill-rule="evenodd" fill="rgb(96.484375%, 60.742188%, 43.089294%)" fill-opacity="1" d="M 2380.039062 1443.238281 L 655.097656 1443.238281 L 825.722656 1201.851562 L 2209.410156 1201.851562 L 2380.039062 1443.238281 "/>
<path fill-rule="evenodd" fill="rgb(93.359375%, 96.875%, 96.484375%)" fill-opacity="1" d="M 2240.621094 1443.238281 L 794.515625 1443.238281 L 937.558594 1201.851562 L 2097.570312 1201.851562 L 2240.621094 1443.238281 "/>
<path fill-rule="evenodd" fill="rgb(96.484375%, 60.742188%, 43.089294%)" fill-opacity="1" d="M 2091.089844 1443.238281 L 944.039062 1443.238281 L 1057.5 1201.851562 L 1977.628906 1201.851562 L 2091.089844 1443.238281 "/>
<path fill-rule="evenodd" fill="rgb(93.359375%, 96.875%, 96.484375%)" fill-opacity="1" d="M 1934.289062 1443.238281 L 1100.839844 1443.238281 L 1183.289062 1201.851562 L 1851.851562 1201.851562 L 1934.289062 1443.238281 "/>
<path fill-rule="evenodd" fill="rgb(96.484375%, 60.742188%, 43.089294%)" fill-opacity="1" d="M 1771.640625 1443.238281 L 1263.488281 1443.238281 L 1313.761719 1201.851562 L 1721.378906 1201.851562 L 1771.640625 1443.238281 "/>
<path fill-rule="evenodd" fill="rgb(93.359375%, 96.875%, 96.484375%)" fill-opacity="1" d="M 1605.679688 1443.238281 L 1429.449219 1443.238281 L 1446.890625 1201.851562 L 1588.25 1201.851562 L 1605.679688 1443.238281 "/>
<path fill-rule="evenodd" fill="rgb(79.296875%, 90.625%, 89.451599%)" fill-opacity="1" d="M 1605.679688 1443.238281 L 1429.699219 1443.238281 C 1429.699219 1443.238281 1429.699219 1474.398438 1429.699219 1509.058594 C 1429.699219 1560.070312 1469.089844 1601.429688 1517.691406 1601.429688 C 1566.28125 1601.429688 1605.679688 1560.070312 1605.679688 1509.058594 C 1605.679688 1474.398438 1605.679688 1443.238281 1605.679688 1443.238281 "/>
<path fill-rule="evenodd" fill="rgb(79.296875%, 90.625%, 89.451599%)" fill-opacity="1" d="M 1934.289062 1443.238281 L 1771.640625 1443.238281 C 1771.640625 1443.238281 1771.640625 1478.710938 1771.640625 1516.058594 C 1771.640625 1538.699219 1780.210938 1560.410156 1795.460938 1576.421875 C 1810.710938 1592.429688 1831.390625 1601.429688 1852.960938 1601.429688 C 1852.960938 1601.429688 1852.960938 1601.429688 1852.96875 1601.429688 C 1874.53125 1601.429688 1895.21875 1592.429688 1910.46875 1576.421875 C 1925.71875 1560.410156 1934.289062 1538.699219 1934.289062 1516.058594 C 1934.289062 1478.710938 1934.289062 1443.238281 1934.289062 1443.238281 "/>
<path fill-rule="evenodd" fill="rgb(79.296875%, 90.625%, 89.451599%)" fill-opacity="1" d="M 1101.089844 1443.238281 L 1263.738281 1443.238281 C 1263.738281 1443.238281 1263.738281 1478.710938 1263.738281 1516.058594 C 1263.738281 1538.699219 1255.171875 1560.410156 1239.921875 1576.421875 C 1224.671875 1592.429688 1203.980469 1601.429688 1182.410156 1601.429688 C 1160.839844 1601.429688 1140.160156 1592.429688 1124.910156 1576.421875 C 1109.660156 1560.410156 1101.089844 1538.699219 1101.089844 1516.058594 C 1101.089844 1478.710938 1101.089844 1443.238281 1101.089844 1443.238281 "/>
<path fill-rule="evenodd" fill="rgb(79.296875%, 90.625%, 89.451599%)" fill-opacity="1" d="M 2240.621094 1443.238281 L 2091.089844 1443.238281 C 2091.089844 1443.238281 2091.089844 1483.199219 2091.089844 1522.949219 C 2091.089844 1543.761719 2098.96875 1563.71875 2112.988281 1578.441406 C 2127.011719 1593.160156 2146.03125 1601.429688 2165.859375 1601.429688 C 2185.679688 1601.429688 2204.699219 1593.160156 2218.71875 1578.441406 C 2232.738281 1563.71875 2240.621094 1543.761719 2240.621094 1522.949219 C 2240.621094 1483.199219 2240.621094 1443.238281 2240.621094 1443.238281 "/>
<path fill-rule="evenodd" fill="rgb(79.296875%, 90.625%, 89.451599%)" fill-opacity="1" d="M 794.761719 1443.238281 L 944.285156 1443.238281 C 944.285156 1443.238281 944.285156 1483.199219 944.285156 1522.949219 C 944.285156 1543.761719 936.40625 1563.71875 922.386719 1578.441406 C 908.367188 1593.160156 889.351562 1601.429688 869.523438 1601.429688 C 849.695312 1601.429688 830.679688 1593.160156 816.65625 1578.441406 C 802.636719 1563.71875 794.761719 1543.761719 794.761719 1522.949219 C 794.761719 1483.199219 794.761719 1443.238281 794.761719 1443.238281 "/>
<path fill-rule="evenodd" fill="rgb(92.96875%, 48.997498%, 39.598083%)" fill-opacity="1" d="M 1771.640625 1443.238281 L 1605.679688 1443.238281 C 1605.679688 1443.238281 1605.679688 1477.621094 1605.679688 1514.320312 C 1605.679688 1562.429688 1642.828125 1601.429688 1688.660156 1601.429688 C 1734.488281 1601.429688 1771.640625 1562.429688 1771.640625 1514.320312 C 1771.640625 1477.621094 1771.640625 1443.238281 1771.640625 1443.238281 "/>
<path fill-rule="evenodd" fill="rgb(92.96875%, 48.997498%, 39.598083%)" fill-opacity="1" d="M 1263.738281 1443.238281 L 1429.699219 1443.238281 C 1429.699219 1443.238281 1429.699219 1477.621094 1429.699219 1514.320312 C 1429.699219 1562.429688 1392.550781 1601.429688 1346.71875 1601.429688 C 1300.890625 1601.429688 1263.738281 1562.429688 1263.738281 1514.320312 C 1263.738281 1477.621094 1263.738281 1443.238281 1263.738281 1443.238281 "/>
<path fill-rule="evenodd" fill="rgb(92.96875%, 48.997498%, 39.598083%)" fill-opacity="1" d="M 2091.089844 1443.238281 L 1934.289062 1443.238281 C 1934.289062 1443.238281 1934.289062 1480.679688 1934.289062 1519.128906 C 1934.289062 1564.578125 1969.390625 1601.429688 2012.691406 1601.429688 C 2055.988281 1601.429688 2091.089844 1564.578125 2091.089844 1519.128906 C 2091.089844 1480.679688 2091.089844 1443.238281 2091.089844 1443.238281 "/>
<path fill-rule="evenodd" fill="rgb(92.96875%, 48.997498%, 39.598083%)" fill-opacity="1" d="M 944.285156 1443.238281 L 1101.089844 1443.238281 C 1101.089844 1443.238281 1101.089844 1480.679688 1101.089844 1519.128906 C 1101.089844 1564.578125 1065.988281 1601.429688 1022.691406 1601.429688 C 979.386719 1601.429688 944.285156 1564.578125 944.285156 1519.128906 C 944.285156 1480.679688 944.285156 1443.238281 944.285156 1443.238281 "/>
<path fill-rule="evenodd" fill="rgb(92.96875%, 48.997498%, 39.598083%)" fill-opacity="1" d="M 2380.039062 1443.238281 L 2240.621094 1443.238281 C 2240.621094 1443.238281 2240.621094 1486.828125 2240.621094 1528.25 C 2240.621094 1547.660156 2247.960938 1566.269531 2261.03125 1579.988281 C 2274.109375 1593.71875 2291.839844 1601.429688 2310.328125 1601.429688 C 2328.820312 1601.429688 2346.550781 1593.71875 2359.621094 1579.988281 C 2372.691406 1566.269531 2380.039062 1547.660156 2380.039062 1528.25 C 2380.039062 1486.828125 2380.039062 1443.238281 2380.039062 1443.238281 "/>
<path fill-rule="evenodd" fill="rgb(92.96875%, 48.997498%, 39.598083%)" fill-opacity="1" d="M 655.339844 1443.238281 L 794.761719 1443.238281 C 794.761719 1443.238281 794.761719 1486.828125 794.761719 1528.25 C 794.761719 1547.660156 787.414062 1566.269531 774.34375 1579.988281 C 761.269531 1593.71875 743.539062 1601.429688 725.050781 1601.429688 C 725.050781 1601.429688 725.050781 1601.429688 725.046875 1601.429688 C 706.5625 1601.429688 688.828125 1593.71875 675.757812 1579.988281 C 662.683594 1566.269531 655.339844 1547.660156 655.339844 1528.25 C 655.339844 1486.828125 655.339844 1443.238281 655.339844 1443.238281 "/>
<path fill-rule="evenodd" fill="rgb(79.296875%, 90.625%, 89.451599%)" fill-opacity="1" d="M 600.371094 2012.984375 C 573.445312 1973.261719 578.90625 1960.46875 578.90625 1960.46875 C 578.90625 1960.46875 550.695312 1990.960938 523.941406 2079.070312 L 556.566406 2094.175781 L 519.875 2092.921875 C 512.480469 2121.160156 507.4375 2152.53125 507.394531 2185.625 C 507.351562 2221.433594 512.417969 2258.765625 522.996094 2293.910156 L 579.546875 2291.15625 L 532.90625 2322.140625 C 553.363281 2372.675781 586.484375 2415.917969 633.625 2439.210938 C 682.511719 2439.703125 781.066406 2446.1875 786.269531 2439.871094 C 805.285156 2416.785156 846.585938 2354.347656 819.117188 2273.21875 L 771.734375 2279.601562 L 815.128906 2262.511719 C 802.117188 2230.523438 778.222656 2195.867188 738.175781 2159.753906 C 723.8125 2146.804688 710.734375 2134.640625 698.839844 2123.234375 L 667.539062 2131.933594 L 689 2113.714844 C 646.890625 2072.570312 620.6875 2041.6875 604.4375 2018.839844 L 593.996094 2024.316406 L 600.371094 2012.984375 "/>
<path fill-rule="evenodd" fill="rgb(62.304688%, 78.709412%, 81.639099%)" fill-opacity="1" d="M 780.523438 2437.441406 C 781.222656 2440.414062 771.609375 2446.101562 770.023438 2438.996094 C 766.484375 2423.164062 757.765625 2391.167969 738.339844 2349.632812 C 725.425781 2322.015625 707.828125 2290.203125 683.863281 2256.132812 C 653.621094 2212.765625 607.695312 2148.539062 583.785156 2085.175781 C 566.972656 2040.625 561.019531 1996.519531 578.90625 1960.46875 C 562.195312 1996.730469 569.289062 2040.328125 587.058594 2084.148438 C 612.382812 2146.613281 659.367188 2209.5 690.382812 2251.964844 C 715.195312 2286.238281 733.550781 2318.296875 747.023438 2346.1875 C 767.382812 2388.335938 776.679688 2421.003906 780.523438 2437.441406 "/>
<path fill-rule="evenodd" fill="rgb(12.889099%, 19.604492%, 40.795898%)" fill-opacity="1" d="M 673.066406 2447.101562 C 673.066406 2451.429688 667.691406 2447.101562 663.167969 2447.101562 C 628.035156 2407.351562 549.199219 2314.058594 484.519531 2207.847656 C 445.386719 2143.582031 411.441406 2074.59375 395.4375 2009.859375 C 395.152344 2008.722656 395.84375 2007.566406 396.984375 2007.28125 C 398.121094 2006.992188 399.277344 2007.6875 399.5625 2008.828125 C 415.847656 2073.027344 450.007812 2141.339844 489.265625 2204.9375 C 557.230469 2315.046875 640.496094 2411.015625 673.066406 2447.101562 "/>
<path fill-rule="evenodd" fill="rgb(96.484375%, 60.742188%, 43.089294%)" fill-opacity="1" d="M 665.621094 2447.101562 C 665.621094 2447.101562 700.953125 2402.871094 681.875 2353.644531 C 662.800781 2304.417969 639.371094 2397.007812 665.621094 2447.101562 "/>
<path fill-rule="evenodd" fill="rgb(96.484375%, 60.742188%, 43.089294%)" fill-opacity="1" d="M 614.71875 2384.453125 C 614.71875 2384.453125 656.882812 2305.722656 632.578125 2280.414062 C 608.277344 2255.101562 597.84375 2332.878906 614.71875 2384.453125 "/>
<path fill-rule="evenodd" fill="rgb(96.484375%, 60.742188%, 43.089294%)" fill-opacity="1" d="M 569.347656 2326.628906 C 569.347656 2326.628906 609.523438 2265.40625 593.625 2239.527344 C 577.726562 2213.648438 551.292969 2261.449219 569.347656 2326.628906 "/>
<path fill-rule="evenodd" fill="rgb(96.484375%, 60.742188%, 43.089294%)" fill-opacity="1" d="M 534.90625 2279.308594 C 534.90625 2279.308594 576.96875 2221.707031 553.003906 2192.03125 C 529.039062 2162.359375 515.730469 2226.421875 534.90625 2279.308594 "/>
<path fill-rule="evenodd" fill="rgb(96.484375%, 60.742188%, 43.089294%)" fill-opacity="1" d="M 494.710938 2218.976562 C 494.710938 2218.976562 532.128906 2172.730469 515.066406 2142.777344 C 498 2112.824219 487.878906 2178.058594 494.710938 2218.976562 "/>
<path fill-rule="evenodd" fill="rgb(96.484375%, 60.742188%, 43.089294%)" fill-opacity="1" d="M 464.257812 2167.828125 C 464.257812 2167.828125 513.085938 2107.585938 489.058594 2079.808594 C 465.03125 2052.027344 462.621094 2143.011719 464.257812 2167.828125 "/>
<path fill-rule="evenodd" fill="rgb(96.484375%, 60.742188%, 43.089294%)" fill-opacity="1" d="M 427.332031 2090.230469 C 427.332031 2090.230469 474.882812 2031.789062 456.382812 2005.464844 C 437.882812 1979.140625 427.136719 2069.433594 427.332031 2090.230469 "/>
<path fill-rule="evenodd" fill="rgb(96.484375%, 60.742188%, 43.089294%)" fill-opacity="1" d="M 401.328125 2023.566406 C 401.328125 2023.566406 429.21875 1957.339844 399.796875 1935.730469 C 370.378906 1914.121094 374.082031 1997.609375 401.328125 2023.566406 "/>
<path fill-rule="evenodd" fill="rgb(96.484375%, 60.742188%, 43.089294%)" fill-opacity="1" d="M 427.332031 2090.230469 C 427.332031 2090.230469 365.234375 2036.359375 348.105469 2056.5 C 330.980469 2076.640625 403.515625 2106.492188 427.332031 2090.230469 "/>
<path fill-rule="evenodd" fill="rgb(96.484375%, 60.742188%, 43.089294%)" fill-opacity="1" d="M 464.257812 2167.828125 C 464.257812 2167.828125 376.632812 2113.472656 371.894531 2148.539062 C 367.15625 2183.609375 440.96875 2194 464.257812 2167.828125 "/>
<path fill-rule="evenodd" fill="rgb(96.484375%, 60.742188%, 43.089294%)" fill-opacity="1" d="M 494.710938 2218.976562 C 494.710938 2218.976562 408.726562 2193.925781 408.808594 2226.679688 C 408.890625 2259.429688 467.6875 2242.660156 494.710938 2218.976562 "/>
<path fill-rule="evenodd" fill="rgb(96.484375%, 60.742188%, 43.089294%)" fill-opacity="1" d="M 534.898438 2279.296875 C 534.898438 2279.296875 470.964844 2272.785156 457.328125 2295.285156 C 443.691406 2317.785156 498.015625 2318.824219 534.898438 2279.296875 "/>
<path fill-rule="evenodd" fill="rgb(96.484375%, 60.742188%, 43.089294%)" fill-opacity="1" d="M 569.347656 2326.628906 C 569.347656 2326.628906 491.476562 2329.902344 480.917969 2359.671875 C 470.359375 2389.4375 555.160156 2358.976562 569.347656 2326.628906 "/>
<path fill-rule="evenodd" fill="rgb(96.484375%, 60.742188%, 43.089294%)" fill-opacity="1" d="M 614.71875 2384.453125 C 614.71875 2384.453125 542.691406 2388.601562 526.808594 2416.492188 C 510.925781 2444.382812 590.003906 2441.410156 614.71875 2384.453125 "/>
<path fill-rule="evenodd" fill="rgb(3.100586%, 64.256287%, 86.71875%)" fill-opacity="1" d="M 960.09375 2439.679688 C 935.042969 2443.773438 884.59375 2437.945312 832.394531 2439.945312 C 776.386719 2421.4375 712.953125 2391.171875 700.972656 2346.890625 C 682.082031 2277.078125 817.011719 2376.902344 808.78125 2328.78125 C 800.546875 2280.660156 675.035156 2216.097656 689.480469 2176.15625 C 703.929688 2136.210938 791.15625 2220.929688 807.433594 2200.574219 C 823.710938 2180.222656 727.066406 2082.027344 754.382812 2033.554688 C 781.695312 1985.078125 802.132812 2068.285156 834.421875 2131.640625 C 866.714844 2194.992188 902.222656 2107.300781 941.878906 2117.25 C 995.941406 2130.808594 893.121094 2243.078125 921.082031 2287.289062 C 946.855469 2328.046875 1013.320312 2161.660156 1028.058594 2271.476562 C 1039.769531 2358.71875 994.839844 2412.140625 960.09375 2439.679688 "/>
<path fill-rule="evenodd" fill="rgb(100%, 100%, 100%)" fill-opacity="1" d="M 899.808594 2407.257812 C 890.804688 2406.304688 854.425781 2402.070312 819.179688 2392.691406 C 799.613281 2387.484375 780.398438 2380.699219 766.433594 2371.992188 C 766.019531 2371.730469 765.5 2371.824219 765.273438 2372.203125 C 765.050781 2372.582031 765.203125 2373.101562 765.613281 2373.367188 C 779.605469 2382.425781 798.953125 2389.660156 818.695312 2395.292969 C 856.335938 2406.027344 895.382812 2410.9375 901.179688 2411.628906 C 904.695312 2422.839844 907.765625 2432.679688 910.265625 2440.71875 C 909.632812 2441.59375 916.054688 2445.554688 914.554688 2440.839844 C 910.671875 2428.664062 905.382812 2412.140625 899.164062 2392.890625 C 902.871094 2390.015625 933.878906 2365.617188 959.878906 2335.140625 C 972.519531 2320.328125 983.976562 2304.082031 990.550781 2288.171875 C 990.726562 2287.765625 990.511719 2287.257812 990.074219 2287.046875 C 989.632812 2286.832031 989.136719 2286.988281 988.964844 2287.398438 C 982.15625 2303 970.492188 2318.847656 957.691406 2333.261719 C 933.402344 2360.613281 905.003906 2382.804688 897.699219 2388.351562 C 885.371094 2350.238281 869.683594 2302.332031 854.109375 2256.410156 C 853.394531 2254.308594 852.683594 2252.210938 851.96875 2250.113281 C 852.265625 2249.984375 852.527344 2249.777344 852.722656 2249.5 L 918.023438 2155.457031 C 918.277344 2155.097656 918.164062 2154.574219 917.769531 2154.285156 C 917.371094 2153.996094 916.84375 2154.050781 916.589844 2154.410156 L 850.277344 2245.152344 C 832.835938 2194.050781 815.890625 2146.671875 804.355469 2119.667969 C 804.171875 2119.226562 803.667969 2118.980469 803.234375 2119.117188 C 802.800781 2119.253906 802.601562 2119.722656 802.789062 2120.160156 C 814.941406 2149.171875 833.140625 2201.644531 851.484375 2257.003906 C 853.449219 2262.9375 855.417969 2268.902344 857.375 2274.863281 C 847.480469 2270.269531 808.699219 2252.035156 779.480469 2235.054688 C 765.25 2226.78125 753.292969 2218.835938 748.140625 2212.910156 C 747.824219 2212.539062 747.285156 2212.457031 746.9375 2212.730469 C 746.589844 2213.003906 746.5625 2213.523438 746.878906 2213.898438 C 752.007812 2220.027344 764.007812 2228.398438 778.351562 2237.109375 C 811.882812 2257.472656 858.21875 2279.773438 858.21875 2279.773438 C 858.496094 2279.90625 858.78125 2279.976562 859.058594 2279.996094 C 874.234375 2326.308594 888.941406 2372.65625 899.808594 2407.257812 "/>
<path fill-rule="evenodd" fill="rgb(79.296875%, 90.625%, 89.451599%)" fill-opacity="1" d="M 1028.96875 2401.027344 C 985.535156 2345.90625 832.070312 1956.558594 924.5625 1928.480469 C 979.910156 1911.679688 954.324219 2162.492188 1047.558594 2386.523438 C 1090.289062 2489.179688 1033.839844 2407.203125 1028.96875 2401.027344 "/>
<path fill-rule="evenodd" fill="rgb(62.304688%, 78.709412%, 81.639099%)" fill-opacity="1" d="M 1063.960938 2438.535156 C 1063.960938 2438.535156 1009.53125 2353.804688 968.402344 2191.316406 C 950.085938 2118.933594 934.410156 2031.140625 927.355469 1928.558594 C 927.324219 1928.089844 926.917969 1927.730469 926.453125 1927.769531 C 925.984375 1927.800781 925.632812 1928.199219 925.664062 1928.671875 C 932.222656 2031.453125 947.492188 2119.460938 965.480469 2192.046875 C 1005.988281 2355.496094 1060.308594 2440.867188 1060.308594 2440.867188 C 1060.949219 2441.875 1062.289062 2442.171875 1063.300781 2441.527344 C 1064.308594 2440.882812 1064.601562 2439.542969 1063.960938 2438.535156 "/>
<path fill-rule="evenodd" fill="rgb(3.100586%, 64.256287%, 86.71875%)" fill-opacity="1" d="M 2424.058594 2400.988281 C 2479.378906 2357.835938 2721.289062 2016.441406 2638.191406 1967.109375 C 2588.46875 1937.589844 2553.460938 2187.210938 2409.46875 2382.46875 C 2343.488281 2471.941406 2417.859375 2405.820312 2424.058594 2400.988281 "/>
<path fill-rule="evenodd" fill="rgb(100%, 100%, 100%)" fill-opacity="1" d="M 2381.140625 2429.054688 C 2381.140625 2429.054688 2454.199219 2359.78125 2532.910156 2211.832031 C 2567.96875 2145.929688 2604.128906 2064.433594 2635.46875 1966.519531 C 2635.609375 1966.070312 2636.089844 1965.828125 2636.53125 1965.96875 C 2636.980469 1966.109375 2637.21875 1966.589844 2637.078125 1967.03125 C 2606.179688 2065.257812 2570.359375 2147.058594 2535.570312 2213.242188 C 2457.238281 2362.265625 2384.121094 2432.1875 2384.121094 2432.1875 C 2383.261719 2433.011719 2381.890625 2432.980469 2381.058594 2432.113281 C 2380.238281 2431.246094 2380.269531 2429.878906 2381.140625 2429.054688 "/>
<path fill-rule="evenodd" fill="rgb(96.484375%, 60.742188%, 43.089294%)" fill-opacity="1" d="M 2461.550781 2001.785156 C 2494.300781 1962.628906 2489.890625 1948.5 2489.890625 1948.5 C 2489.890625 1948.5 2516.488281 1983.800781 2535.359375 2079.925781 L 2499.210938 2092.414062 L 2538.171875 2095.015625 C 2542.96875 2125.695312 2544.949219 2159.441406 2541.441406 2194.472656 C 2537.648438 2232.375 2528.289062 2271.347656 2513.320312 2307.410156 L 2453.769531 2298.429688 L 2499.808594 2336.222656 C 2476.621094 2380.15625 2444.179688 2417.429688 2402.429688 2439.539062 C 2352.21875 2439.539062 2308.140625 2444.855469 2227.238281 2444.855469 C 2227.238281 2444.855469 2154.03125 2359.371094 2202.128906 2253.761719 L 2251.589844 2265.597656 L 2207.5 2242.859375 C 2224.699219 2210.394531 2253.699219 2176.28125 2299.960938 2142.347656 C 2316.550781 2130.183594 2331.699219 2118.710938 2345.511719 2107.914062 L 2377.699219 2120.476562 L 2356.941406 2098.894531 C 2405.929688 2059.863281 2436.96875 2029.984375 2456.621094 2007.542969 L 2467.078125 2014.460938 L 2461.550781 2001.785156 "/>
<path fill-rule="evenodd" fill="rgb(100%, 100%, 100%)" fill-opacity="1" d="M 2232.890625 2445.851562 C 2232.890625 2445.851562 2243.199219 2403.964844 2279.429688 2343.300781 C 2296.058594 2315.453125 2318.089844 2283.667969 2347.109375 2250.179688 C 2383.769531 2207.523438 2439.261719 2144.472656 2471.359375 2079.96875 C 2493.929688 2034.617188 2504.960938 1988.578125 2489.890625 1948.5 C 2503.691406 1988.671875 2491.511719 2034.054688 2468.011719 2078.53125 C 2434.511719 2141.925781 2378.039062 2203.449219 2340.660156 2245.070312 C 2310.71875 2278.683594 2287.859375 2310.644531 2270.609375 2338.71875 C 2239.828125 2388.824219 2226.789062 2426.589844 2222.910156 2439.253906 C 2224.519531 2442.347656 2227.238281 2444.855469 2227.238281 2444.855469 C 2227.238281 2444.855469 2230.109375 2445.949219 2232.589844 2446.734375 C 2232.710938 2446.449219 2232.808594 2446.15625 2232.890625 2445.851562 "/>
<path fill-rule="evenodd" fill="rgb(62.304688%, 78.709412%, 81.639099%)" fill-opacity="1" d="M 1957.28125 2428.386719 C 1957.28125 2428.386719 2050.320312 2291.296875 2037.039062 2151.8125 C 2031.441406 2092.964844 2006.851562 2033.710938 1948.300781 1984.171875 C 1947.410156 1983.429688 1947.300781 1982.109375 1948.039062 1981.230469 C 1948.78125 1980.339844 1950.101562 1980.230469 1950.980469 1980.96875 C 2010.988281 2031.070312 2036.378906 2091.339844 2042.480469 2151.277344 C 2056.878906 2292.753906 1963.410156 2432.515625 1963.410156 2432.515625 C 1962.269531 2434.207031 1959.96875 2434.65625 1958.28125 2433.515625 C 1956.589844 2432.378906 1956.140625 2430.078125 1957.28125 2428.386719 "/>
<path fill-rule="evenodd" fill="rgb(62.304688%, 78.709412%, 81.639099%)" fill-opacity="1" d="M 1959.160156 2425.023438 C 1959.160156 2425.023438 1953.621094 2415.054688 1944.25 2401.285156 C 1941.070312 2396.609375 1937.429688 2391.59375 1933.558594 2386.222656 C 1930.691406 2382.246094 1927.648438 2378.144531 1924.570312 2373.917969 C 1921.621094 2369.878906 1918.730469 2365.714844 1915.570312 2361.640625 C 1908.859375 2352.953125 1901.671875 2344.578125 1892.949219 2337.757812 C 1892.269531 2337.335938 1892.058594 2336.441406 1892.480469 2335.761719 C 1892.898438 2335.078125 1893.800781 2334.867188 1894.480469 2335.289062 C 1904.988281 2340.28125 1914.609375 2346.867188 1923.179688 2354.601562 C 1926.679688 2357.75 1929.921875 2361.078125 1932.929688 2364.550781 C 1934.96875 2366.910156 1936.898438 2369.339844 1938.628906 2371.835938 C 1943.289062 2378.539062 1947.058594 2385.375 1950.109375 2391.773438 C 1958.738281 2409.867188 1961.871094 2423.992188 1961.871094 2423.992188 C 1962.160156 2424.742188 1961.78125 2425.582031 1961.03125 2425.867188 C 1960.28125 2426.152344 1959.441406 2425.773438 1959.160156 2425.023438 "/>
<path fill-rule="evenodd" fill="rgb(62.304688%, 78.709412%, 81.639099%)" fill-opacity="1" d="M 1973.390625 2408.933594 C 1973.390625 2408.933594 1972.878906 2397.148438 1964.101562 2378.644531 C 1961.480469 2373.140625 1958.109375 2367.152344 1953.941406 2360.472656 C 1951.390625 2356.378906 1948.460938 2352.117188 1945.359375 2347.5 C 1942.621094 2343.410156 1939.808594 2339.039062 1936.628906 2334.496094 C 1932.390625 2328.429688 1927.78125 2322.0625 1922.390625 2315.347656 C 1917.589844 2309.382812 1912.558594 2303.234375 1906.640625 2296.863281 C 1914.078125 2301.5625 1920.730469 2306.097656 1926.828125 2310.863281 C 1931.398438 2314.441406 1935.511719 2318.023438 1939.328125 2321.648438 C 1943.589844 2325.6875 1947.398438 2329.679688 1950.75 2333.730469 C 1953.21875 2336.710938 1955.421875 2339.707031 1957.359375 2342.695312 C 1960.621094 2347.742188 1963.179688 2352.71875 1965.300781 2357.453125 C 1966.929688 2361.082031 1968.238281 2364.558594 1969.308594 2367.914062 C 1972.429688 2377.664062 1973.738281 2385.890625 1974.191406 2392.484375 C 1974.910156 2403.105469 1973.390625 2408.933594 1973.390625 2408.933594 "/>
<path fill-rule="evenodd" fill="rgb(62.304688%, 78.709412%, 81.639099%)" fill-opacity="1" d="M 1990.710938 2375.996094 C 1990.710938 2375.996094 1987.339844 2359.929688 1976.019531 2339.152344 C 1974.441406 2336.238281 1972.71875 2333.257812 1970.878906 2330.136719 C 1968.398438 2325.914062 1965.589844 2321.613281 1962.589844 2317.117188 C 1960.738281 2314.347656 1958.859375 2311.496094 1956.859375 2308.601562 C 1954.03125 2304.480469 1951.101562 2300.257812 1947.75 2296.046875 C 1944.578125 2292.0625 1941.238281 2288.105469 1937.488281 2284.136719 C 1932.21875 2278.539062 1926.570312 2273.054688 1919.890625 2267.757812 C 1927.871094 2271.226562 1934.988281 2274.996094 1941.550781 2279.300781 C 1946.371094 2282.460938 1950.699219 2285.824219 1954.75 2289.359375 C 1959.121094 2293.171875 1963.039062 2297.113281 1966.519531 2301.230469 C 1968.988281 2304.152344 1971.210938 2307.160156 1973.160156 2310.214844 C 1976.320312 2315.148438 1978.839844 2320.152344 1980.949219 2325.019531 C 1982.488281 2328.578125 1983.78125 2332.039062 1984.828125 2335.441406 C 1992.039062 2358.792969 1990.710938 2375.996094 1990.710938 2375.996094 "/>
<path fill-rule="evenodd" fill="rgb(62.304688%, 78.709412%, 81.639099%)" fill-opacity="1" d="M 2005.421875 2343.253906 C 2005.421875 2343.253906 2000.890625 2327.359375 1988.839844 2307.679688 C 1987.121094 2304.871094 1985.269531 2302.015625 1983.308594 2299.035156 C 1980.648438 2294.976562 1977.660156 2290.875 1974.488281 2286.625 C 1972.519531 2283.984375 1970.511719 2281.28125 1968.398438 2278.554688 C 1965.371094 2274.644531 1962.25 2270.664062 1958.699219 2266.769531 C 1955.308594 2263.050781 1951.738281 2259.402344 1947.769531 2255.816406 C 1942.121094 2250.71875 1936.058594 2245.84375 1928.960938 2241.359375 C 1937.179688 2243.902344 1944.550781 2246.949219 1951.410156 2250.664062 C 1956.421875 2253.378906 1960.949219 2256.386719 1965.21875 2259.617188 C 1969.789062 2263.078125 1973.921875 2266.742188 1977.621094 2270.640625 C 1980.21875 2273.386719 1982.589844 2276.242188 1984.679688 2279.175781 C 1988.039062 2283.863281 1990.789062 2288.691406 1993.121094 2293.429688 C 1994.808594 2296.855469 1996.25 2300.21875 1997.449219 2303.535156 C 2005.570312 2325.925781 2005.421875 2343.253906 2005.421875 2343.253906 "/>
<path fill-rule="evenodd" fill="rgb(62.304688%, 78.709412%, 81.639099%)" fill-opacity="1" d="M 2021.148438 2300.15625 C 2021.148438 2300.15625 2013.980469 2285.898438 1998.871094 2268.558594 C 1996.738281 2266.113281 1994.488281 2263.628906 1992.109375 2261.027344 C 1988.878906 2257.492188 1985.339844 2253.941406 1981.628906 2250.226562 C 1979.328125 2247.929688 1976.988281 2245.554688 1974.558594 2243.15625 C 1971.078125 2239.726562 1967.519531 2236.210938 1963.578125 2232.789062 C 1959.828125 2229.527344 1955.941406 2226.324219 1951.691406 2223.191406 C 1945.628906 2218.722656 1939.269531 2214.460938 1932 2210.609375 C 1940.199219 2212.4375 1947.691406 2214.746094 1954.800781 2217.703125 C 1959.941406 2219.84375 1964.691406 2222.273438 1969.230469 2224.925781 C 1974.070312 2227.757812 1978.539062 2230.792969 1982.640625 2234.085938 C 1985.519531 2236.402344 1988.199219 2238.847656 1990.640625 2241.386719 C 1994.558594 2245.464844 1997.929688 2249.734375 2000.910156 2253.949219 C 2003.070312 2257.015625 2004.988281 2260.039062 2006.679688 2263.054688 C 2018.28125 2283.707031 2021.148438 2300.15625 2021.148438 2300.15625 "/>
<path fill-rule="evenodd" fill="rgb(62.304688%, 78.709412%, 81.639099%)" fill-opacity="1" d="M 2030.140625 2270.398438 C 2030.140625 2270.398438 2023.238281 2256.363281 2008.21875 2239.8125 C 2006.101562 2237.480469 2003.851562 2235.121094 2001.480469 2232.65625 C 1998.261719 2229.3125 1994.71875 2225.976562 1990.980469 2222.5 C 1988.679688 2220.351562 1986.320312 2218.140625 1983.871094 2215.90625 C 1980.359375 2212.722656 1976.761719 2209.460938 1972.769531 2206.316406 C 1968.96875 2203.332031 1965.039062 2200.414062 1960.730469 2197.585938 C 1954.621094 2193.578125 1948.199219 2189.785156 1940.851562 2186.429688 C 1949.019531 2187.699219 1956.449219 2189.480469 1963.511719 2191.925781 C 1968.679688 2193.714844 1973.449219 2195.828125 1978 2198.175781 C 1982.898438 2200.699219 1987.410156 2203.460938 1991.558594 2206.5 C 1994.488281 2208.652344 1997.199219 2210.945312 1999.679688 2213.347656 C 2003.671875 2217.214844 2007.089844 2221.300781 2010.101562 2225.359375 C 2012.289062 2228.316406 2014.230469 2231.242188 2015.929688 2234.167969 C 2027.550781 2254.144531 2030.140625 2270.398438 2030.140625 2270.398438 "/>
<path fill-rule="evenodd" fill="rgb(62.304688%, 78.709412%, 81.639099%)" fill-opacity="1" d="M 2039.480469 2213.695312 C 2039.480469 2213.695312 2030.761719 2202.765625 2014.429688 2191.285156 C 2012.128906 2189.671875 2009.71875 2188.070312 2007.179688 2186.390625 C 2003.738281 2184.113281 2000.019531 2181.921875 1996.121094 2179.621094 C 1993.710938 2178.203125 1991.25 2176.726562 1988.699219 2175.25 C 1985.058594 2173.140625 1981.339844 2170.96875 1977.269531 2168.980469 C 1973.398438 2167.089844 1969.449219 2165.28125 1965.140625 2163.621094 C 1959.039062 2161.265625 1952.75 2159.148438 1945.648438 2157.601562 C 1953.078125 2156.921875 1959.898438 2156.859375 1966.578125 2157.476562 C 1971.5 2157.933594 1976.089844 2158.777344 1980.570312 2159.878906 C 1985.398438 2161.066406 1989.910156 2162.5625 1994.160156 2164.398438 C 1997.171875 2165.695312 2000.011719 2167.175781 2002.648438 2168.8125 C 2006.898438 2171.449219 2010.679688 2174.414062 2014.070312 2177.441406 C 2016.550781 2179.648438 2018.769531 2181.886719 2020.800781 2184.160156 C 2026.320312 2190.351562 2030.359375 2196.226562 2033.320312 2201.21875 C 2037.761719 2208.707031 2039.480469 2213.695312 2039.480469 2213.695312 "/>
<path fill-rule="evenodd" fill="rgb(62.304688%, 78.709412%, 81.639099%)" fill-opacity="1" d="M 2040.839844 2166.484375 C 2040.839844 2166.484375 2033.109375 2160.492188 2019.351562 2153.609375 C 2014.960938 2151.40625 2010.019531 2149.234375 2004.511719 2146.910156 C 2000.980469 2145.425781 1997.230469 2144.007812 1993.339844 2142.402344 C 1989.75 2140.921875 1986.109375 2139.257812 1982.21875 2137.695312 C 1976.75 2135.496094 1971.121094 2133.308594 1964.890625 2131.421875 C 1959.039062 2129.648438 1953.128906 2127.976562 1946.539062 2126.785156 C 1953.308594 2125.746094 1959.570312 2125.1875 1965.828125 2125.183594 C 1970.371094 2125.183594 1974.648438 2125.511719 1978.871094 2126.046875 C 1983.398438 2126.621094 1987.691406 2127.449219 1991.78125 2128.589844 C 1994.679688 2129.398438 1997.460938 2130.375 2000.070312 2131.507812 C 2004.300781 2133.339844 2008.140625 2135.5 2011.660156 2137.738281 C 2014.25 2139.382812 2016.609375 2141.0625 2018.800781 2142.816406 C 2034.089844 2155.101562 2040.839844 2166.484375 2040.839844 2166.484375 "/>
<path fill-rule="evenodd" fill="rgb(62.304688%, 78.709412%, 81.639099%)" fill-opacity="1" d="M 2036.660156 2129.359375 C 2036.660156 2129.359375 2030.980469 2126.566406 2020.628906 2123.203125 C 2016.871094 2121.980469 2012.609375 2120.882812 2007.75 2119.492188 C 2003.839844 2118.371094 1999.589844 2117.308594 1995.078125 2115.96875 C 1993.109375 2115.386719 1991.148438 2114.640625 1989.109375 2113.921875 C 1986.179688 2112.890625 1983.230469 2111.804688 1980.078125 2110.710938 C 1972.71875 2108.144531 1965.210938 2105.53125 1956.421875 2103.714844 C 1961.949219 2102.671875 1966.980469 2101.9375 1972.148438 2101.601562 C 1975.859375 2101.355469 1979.328125 2101.367188 1982.820312 2101.523438 C 1986.550781 2101.691406 1990.070312 2102.035156 1993.480469 2102.652344 C 1995.890625 2103.085938 1998.210938 2103.664062 2000.410156 2104.386719 C 2003.988281 2105.5625 2007.261719 2107.03125 2010.269531 2108.5625 C 2012.519531 2109.699219 2014.558594 2110.867188 2016.480469 2112.113281 C 2030.328125 2121.144531 2036.660156 2129.359375 2036.660156 2129.359375 "/>
<path fill-rule="evenodd" fill="rgb(62.304688%, 78.709412%, 81.639099%)" fill-opacity="1" d="M 2028.921875 2098.28125 C 2028.921875 2098.28125 2020 2095.804688 2004.191406 2093.484375 C 2002.109375 2093.179688 1999.96875 2092.871094 1997.691406 2092.476562 C 1994.648438 2091.949219 1991.429688 2091.464844 1988.058594 2090.765625 C 1985.988281 2090.335938 1983.890625 2089.804688 1981.730469 2089.214844 C 1978.648438 2088.378906 1975.570312 2087.367188 1972.269531 2086.402344 C 1969.121094 2085.484375 1966.011719 2084.546875 1962.660156 2083.582031 C 1957.851562 2082.203125 1953.171875 2080.796875 1947.890625 2079.558594 C 1953.300781 2078.566406 1958.191406 2077.773438 1963.238281 2077.300781 C 1966.851562 2076.964844 1970.21875 2076.832031 1973.621094 2076.816406 C 1977.238281 2076.804688 1980.660156 2076.917969 1983.988281 2077.277344 C 1986.351562 2077.535156 1988.628906 2077.917969 1990.800781 2078.4375 C 1994.359375 2079.289062 1997.640625 2080.417969 2000.691406 2081.589844 C 2002.980469 2082.464844 2005.070312 2083.378906 2007.050781 2084.367188 C 2021.769531 2091.703125 2028.921875 2098.28125 2028.921875 2098.28125 "/>
<path fill-rule="evenodd" fill="rgb(62.304688%, 78.709412%, 81.639099%)" fill-opacity="1" d="M 2015.921875 2065.84375 C 2015.921875 2065.84375 2008.378906 2064.386719 1996.679688 2062.726562 C 1995.058594 2062.496094 1993.449219 2062.265625 1991.710938 2061.933594 C 1989.378906 2061.492188 1986.949219 2061.085938 1984.460938 2060.464844 C 1982.898438 2060.074219 1981.339844 2059.578125 1979.769531 2059.039062 C 1977.441406 2058.238281 1975.199219 2057.3125 1972.820312 2056.390625 C 1966.71875 2054.039062 1961.058594 2051.65625 1954.5 2050.257812 C 1958.511719 2048.996094 1962.171875 2048.089844 1966.300781 2047.476562 C 1969.070312 2047.066406 1971.660156 2046.90625 1974.410156 2046.84375 C 1977.191406 2046.78125 1979.839844 2046.871094 1982.511719 2047.203125 C 1984.308594 2047.429688 1986.070312 2047.78125 1987.761719 2048.273438 C 1990.421875 2049.054688 1992.890625 2050.09375 1995.21875 2051.195312 C 1996.910156 2052 1998.449219 2052.824219 1999.929688 2053.738281 C 2010.269531 2060.121094 2015.921875 2065.84375 2015.921875 2065.84375 "/>
<path fill-rule="evenodd" fill="rgb(62.304688%, 78.709412%, 81.639099%)" fill-opacity="1" d="M 1996.46875 2033.050781 C 1996.46875 2033.050781 1991.851562 2032.34375 1981.761719 2033.746094 C 1980.570312 2033.910156 1979.410156 2034.128906 1978.058594 2034.257812 C 1976.359375 2034.421875 1974.578125 2034.699219 1972.601562 2034.765625 C 1971.429688 2034.804688 1970.210938 2034.742188 1968.941406 2034.636719 C 1967.109375 2034.488281 1965.308594 2034.175781 1963.289062 2033.875 C 1958.550781 2033.164062 1954.128906 2032.144531 1948.230469 2031.664062 C 1951.21875 2029.71875 1953.558594 2028.230469 1956.378906 2026.78125 C 1958.421875 2025.722656 1960.230469 2024.988281 1962.191406 2024.257812 C 1964.328125 2023.464844 1966.289062 2022.886719 1968.300781 2022.507812 C 1969.738281 2022.234375 1971.148438 2022.113281 1972.5 2022.136719 C 1974.800781 2022.179688 1976.898438 2022.527344 1978.839844 2022.988281 C 1980.359375 2023.351562 1981.679688 2023.75 1982.96875 2024.265625 C 1986.058594 2025.503906 1988.289062 2026.632812 1990.269531 2027.921875 C 1994.941406 2030.953125 1996.46875 2033.050781 1996.46875 2033.050781 "/>
<path fill-rule="evenodd" fill="rgb(62.304688%, 78.709412%, 81.639099%)" fill-opacity="1" d="M 1978.359375 2010.324219 C 1978.359375 2010.324219 1974.269531 2009.839844 1965.808594 2011.121094 C 1964.820312 2011.273438 1963.878906 2011.5 1962.761719 2011.613281 C 1961.351562 2011.757812 1959.898438 2012.054688 1958.289062 2012.085938 C 1957.078125 2012.105469 1955.839844 2011.953125 1954.53125 2011.804688 C 1952.589844 2011.582031 1950.78125 2011.144531 1948.601562 2010.785156 C 1945.03125 2010.203125 1942.050781 2009.40625 1937.789062 2009.019531 C 1940.238281 2007 1942.039062 2005.59375 1944.421875 2004.089844 C 1946.140625 2003.003906 1947.640625 2002.300781 1949.339844 2001.546875 C 1951.171875 2000.734375 1952.839844 2000.1875 1954.609375 1999.800781 C 1955.859375 1999.53125 1957.089844 1999.429688 1958.269531 1999.460938 C 1959.578125 1999.480469 1960.800781 1999.660156 1961.960938 1999.929688 C 1964 2000.410156 1965.71875 2000.925781 1967.328125 2001.6875 C 1969.96875 2002.9375 1971.78125 2004.054688 1973.429688 2005.375 C 1977.199219 2008.378906 1978.359375 2010.324219 1978.359375 2010.324219 "/>
<path fill-rule="evenodd" fill="rgb(62.304688%, 78.709412%, 81.639099%)" fill-opacity="1" d="M 1955.269531 1987.421875 C 1955.269531 1987.421875 1952.390625 1986.058594 1943.199219 1986.828125 C 1942.230469 1986.910156 1941.289062 1987.078125 1940.160156 1987.121094 C 1938.78125 1987.160156 1937.308594 1987.328125 1935.671875 1987.238281 C 1934.710938 1987.199219 1933.71875 1987.03125 1932.679688 1986.828125 C 1931.160156 1986.53125 1929.738281 1986.058594 1928.070312 1985.550781 C 1924.128906 1984.371094 1920.761719 1982.921875 1915.699219 1981.601562 C 1918.429688 1980.03125 1920.359375 1978.910156 1922.859375 1977.769531 C 1924.679688 1976.941406 1926.179688 1976.410156 1927.898438 1975.871094 C 1929.769531 1975.289062 1931.410156 1974.898438 1933.140625 1974.691406 C 1934.378906 1974.539062 1935.570312 1974.539062 1936.699219 1974.660156 C 1937.980469 1974.789062 1939.140625 1975.070312 1940.238281 1975.410156 C 1942.25 1976.050781 1943.898438 1976.679688 1945.390625 1977.53125 C 1948.03125 1979.039062 1949.730469 1980.269531 1951.179688 1981.71875 C 1954.859375 1985.378906 1955.269531 1987.421875 1955.269531 1987.421875 "/>
<path fill-rule="evenodd" fill="rgb(62.304688%, 78.709412%, 81.639099%)" fill-opacity="1" d="M 1963.011719 1994.519531 C 1963.011719 1994.519531 1962.578125 1989.828125 1960.648438 1981.410156 C 1960.410156 1980.359375 1960.128906 1979.359375 1959.929688 1978.191406 C 1959.679688 1976.691406 1959.328125 1975.160156 1959.179688 1973.46875 C 1959.089844 1972.449219 1959.109375 1971.398438 1959.148438 1970.320312 C 1959.21875 1968.691406 1959.46875 1967.148438 1959.660156 1965.410156 C 1960.128906 1961.011719 1960.890625 1957.179688 1960.78125 1952.039062 C 1963 1954.371094 1964.589844 1956.191406 1966.289062 1958.609375 C 1967.488281 1960.308594 1968.300781 1961.851562 1969.171875 1963.601562 C 1970.078125 1965.429688 1970.730469 1967.140625 1971.21875 1968.980469 C 1971.558594 1970.238281 1971.75 1971.5 1971.78125 1972.730469 C 1971.839844 1974.75 1971.601562 1976.640625 1971.230469 1978.421875 C 1970.941406 1979.769531 1970.628906 1980.941406 1970.179688 1982.121094 C 1969.160156 1984.828125 1968.238281 1986.808594 1967.140625 1988.679688 C 1964.699219 1992.820312 1963.011719 1994.519531 1963.011719 1994.519531 "/>
<path fill-rule="evenodd" fill="rgb(62.304688%, 78.709412%, 81.639099%)" fill-opacity="1" d="M 1984.679688 2017.667969 C 1984.679688 2017.667969 1985.25 2011.015625 1985.011719 2000.101562 C 1984.96875 1998.648438 1984.921875 1997.199219 1984.949219 1995.609375 C 1984.988281 1993.519531 1984.960938 1991.339844 1985.121094 1989.039062 C 1985.230469 1987.628906 1985.429688 1986.191406 1985.671875 1984.71875 C 1986.019531 1982.558594 1986.519531 1980.46875 1986.980469 1978.191406 C 1988.121094 1972.558594 1989.398438 1967.261719 1989.730469 1960.871094 C 1991.679688 1964.320312 1993.191406 1967.339844 1994.53125 1970.828125 C 1995.460938 1973.261719 1996.089844 1975.53125 1996.660156 1977.949219 C 1997.25 1980.46875 1997.640625 1982.859375 1997.808594 1985.300781 C 1997.921875 1986.980469 1997.878906 1988.628906 1997.699219 1990.21875 C 1997.398438 1992.789062 1996.800781 1995.179688 1996.101562 1997.421875 C 1995.578125 1999.089844 1995.03125 2000.589844 1994.359375 2002.042969 C 1989.589844 2012.414062 1984.679688 2017.667969 1984.679688 2017.667969 "/>
<path fill-rule="evenodd" fill="rgb(62.304688%, 78.709412%, 81.639099%)" fill-opacity="1" d="M 2001.058594 2039.792969 C 2001.058594 2039.792969 2002.820312 2033.296875 2004.421875 2022.722656 C 2004.878906 2019.648438 2005.261719 2016.378906 2005.730469 2012.742188 C 2006 2010.644531 2006.191406 2008.476562 2006.578125 2006.242188 C 2007.050781 2003.484375 2007.648438 2000.660156 2008.269531 1997.730469 C 2009.171875 1993.488281 2010.261719 1989.300781 2010.949219 1984.679688 C 2011.671875 1979.921875 2012.371094 1975.398438 2012.410156 1970.25 C 2014.558594 1974.539062 2016.191406 1978.5 2017.460938 1982.839844 C 2018.351562 1985.898438 2018.898438 1988.808594 2019.320312 1991.828125 C 2019.769531 1994.980469 2019.960938 1998.011719 2019.878906 2001.027344 C 2019.828125 2003.109375 2019.601562 2005.148438 2019.21875 2007.105469 C 2018.609375 2010.230469 2017.671875 2013.144531 2016.621094 2015.871094 C 2015.851562 2017.859375 2015.039062 2019.683594 2014.109375 2021.417969 C 2007.699219 2033.425781 2001.058594 2039.792969 2001.058594 2039.792969 "/>
<path fill-rule="evenodd" fill="rgb(62.304688%, 78.709412%, 81.639099%)" fill-opacity="1" d="M 2022.269531 2079.988281 C 2022.269531 2079.988281 2027.128906 2072.984375 2031.71875 2060.144531 C 2033.148438 2056.136719 2034.421875 2051.644531 2035.738281 2046.558594 C 2036.578125 2043.367188 2037.289062 2039.96875 2038.179688 2036.386719 C 2038.988281 2033.132812 2039.96875 2029.789062 2040.820312 2026.203125 C 2042.011719 2021.222656 2043.191406 2016.078125 2044.039062 2010.332031 C 2044.820312 2005.023438 2045.558594 1999.691406 2045.808594 1993.679688 C 2047.820312 1999.511719 2049.328125 2004.820312 2050.351562 2010.21875 C 2051.101562 2014.230469 2051.5 2018 2051.699219 2021.753906 C 2051.921875 2025.859375 2051.839844 2029.734375 2051.441406 2033.472656 C 2051.148438 2036.160156 2050.671875 2038.742188 2050.011719 2041.1875 C 2048.929688 2045.210938 2047.460938 2048.871094 2045.859375 2052.214844 C 2044.671875 2054.703125 2043.410156 2056.96875 2042.050781 2059.074219 C 2038.269531 2064.945312 2034.488281 2069.355469 2031.109375 2072.699219 C 2025.929688 2077.824219 2022.269531 2079.988281 2022.269531 2079.988281 "/>
<path fill-rule="evenodd" fill="rgb(62.304688%, 78.709412%, 81.639099%)" fill-opacity="1" d="M 2032.710938 2111.4375 C 2032.710938 2111.4375 2038.378906 2104.449219 2045.71875 2093.347656 C 2048.171875 2089.644531 2050.710938 2085.589844 2053.410156 2081.164062 C 2054.410156 2079.515625 2055.421875 2077.832031 2056.5 2076.144531 C 2057.539062 2074.523438 2058.609375 2072.886719 2059.71875 2071.257812 C 2061.921875 2068.0625 2064.179688 2064.902344 2066.328125 2061.515625 C 2070.980469 2054.210938 2075.21875 2046.835938 2077.648438 2038.085938 C 2078.261719 2043.75 2078.210938 2049.066406 2077.519531 2054.554688 C 2077.039062 2058.328125 2076.21875 2061.886719 2075.171875 2065.476562 C 2074.101562 2069.128906 2072.789062 2072.605469 2071.191406 2075.941406 C 2070.101562 2078.203125 2068.871094 2080.363281 2067.5 2082.382812 C 2065.359375 2085.535156 2062.960938 2088.371094 2060.511719 2090.972656 C 2058.761719 2092.832031 2057.019531 2094.519531 2055.21875 2096.074219 C 2043.101562 2106.507812 2032.710938 2111.4375 2032.710938 2111.4375 "/>
<path fill-rule="evenodd" fill="rgb(62.304688%, 78.709412%, 81.639099%)" fill-opacity="1" d="M 2038.800781 2143.117188 C 2038.800781 2143.117188 2047.691406 2135.402344 2059 2122.707031 C 2062.820312 2118.414062 2066.851562 2113.621094 2071 2108.359375 C 2072.558594 2106.386719 2074.128906 2104.359375 2075.75 2102.3125 C 2077.320312 2100.34375 2078.898438 2098.34375 2080.53125 2096.335938 C 2083.699219 2092.425781 2086.890625 2088.457031 2089.921875 2084.199219 C 2096.320312 2075.199219 2102.070312 2065.679688 2105.53125 2054.425781 C 2105.488281 2061.710938 2104.640625 2068.5625 2102.960938 2075.351562 C 2101.800781 2080.066406 2100.230469 2084.519531 2098.378906 2088.890625 C 2096.488281 2093.378906 2094.308594 2097.628906 2091.820312 2101.640625 C 2090.109375 2104.378906 2088.25 2106.972656 2086.261719 2109.386719 C 2083.140625 2113.164062 2079.761719 2116.535156 2076.359375 2119.601562 C 2073.941406 2121.792969 2071.511719 2123.785156 2069.070312 2125.597656 C 2052.71875 2137.714844 2038.800781 2143.117188 2038.800781 2143.117188 "/>
<path fill-rule="evenodd" fill="rgb(62.304688%, 78.709412%, 81.639099%)" fill-opacity="1" d="M 2040.328125 2184.277344 C 2040.328125 2184.277344 2051.339844 2180.675781 2065.941406 2174.371094 C 2071.058594 2172.160156 2076.519531 2169.660156 2082.160156 2166.886719 C 2084.328125 2165.820312 2086.511719 2164.722656 2088.71875 2163.644531 C 2090.878906 2162.59375 2093.058594 2161.535156 2095.238281 2160.492188 C 2099.628906 2158.398438 2103.949219 2156.308594 2108.058594 2153.863281 C 2117.511719 2148.238281 2125.660156 2141.660156 2130.429688 2132.054688 C 2128.941406 2141.246094 2124.800781 2149.277344 2118.75 2156.488281 C 2114.828125 2161.160156 2110.171875 2165.28125 2104.988281 2168.851562 C 2101.21875 2171.449219 2097.179688 2173.703125 2093 2175.523438 C 2088.769531 2177.367188 2084.410156 2178.722656 2080.128906 2179.839844 C 2074.558594 2181.292969 2069.238281 2182.257812 2064.28125 2182.90625 C 2050.269531 2184.753906 2040.328125 2184.277344 2040.328125 2184.277344 "/>
<path fill-rule="evenodd" fill="rgb(62.304688%, 78.709412%, 81.639099%)" fill-opacity="1" d="M 2036.769531 2234.777344 C 2036.769531 2234.777344 2047.371094 2235.429688 2062.230469 2234.328125 C 2067.320312 2233.953125 2072.789062 2233.355469 2078.589844 2232.515625 C 2080.78125 2232.195312 2082.980469 2231.839844 2085.230469 2231.507812 C 2087.410156 2231.191406 2089.609375 2230.863281 2091.828125 2230.550781 C 2096.191406 2229.929688 2100.558594 2229.289062 2104.96875 2228.246094 C 2114.410156 2226.015625 2123.53125 2222.800781 2131.898438 2216.351562 C 2128.230469 2221.894531 2124.070312 2226.410156 2119.230469 2230.335938 C 2115.808594 2233.105469 2112.191406 2235.332031 2108.359375 2237.3125 C 2104.460938 2239.332031 2100.449219 2240.933594 2096.328125 2242.132812 C 2093.539062 2242.941406 2090.71875 2243.523438 2087.910156 2243.878906 C 2083.558594 2244.421875 2079.269531 2244.480469 2075.128906 2244.289062 C 2072.21875 2244.152344 2069.429688 2243.882812 2066.71875 2243.453125 C 2049.058594 2240.65625 2036.769531 2234.777344 2036.769531 2234.777344 "/>
<path fill-rule="evenodd" fill="rgb(62.304688%, 78.709412%, 81.639099%)" fill-opacity="1" d="M 2028.171875 2275.847656 C 2028.171875 2275.847656 2036.710938 2276.261719 2049.46875 2276.179688 C 2053.359375 2276.15625 2057.488281 2276.070312 2061.96875 2276.023438 C 2064.640625 2275.996094 2067.371094 2275.898438 2070.171875 2275.980469 C 2073.71875 2276.082031 2077.339844 2276.3125 2081 2276.535156 C 2086.488281 2276.867188 2091.878906 2277.359375 2097.390625 2277.304688 C 2103.460938 2277.246094 2109.140625 2277.03125 2114.871094 2275.78125 C 2110.339844 2278.910156 2105.628906 2281.402344 2100.328125 2283.472656 C 2096.859375 2284.828125 2093.371094 2285.832031 2089.710938 2286.691406 C 2086.070312 2287.539062 2082.449219 2288.160156 2078.769531 2288.480469 C 2076.308594 2288.691406 2073.859375 2288.75 2071.441406 2288.632812 C 2067.691406 2288.453125 2064.058594 2287.921875 2060.578125 2287.269531 C 2058.101562 2286.800781 2055.761719 2286.253906 2053.488281 2285.605469 C 2038.230469 2281.238281 2028.171875 2275.847656 2028.171875 2275.847656 "/>
<path fill-rule="evenodd" fill="rgb(62.304688%, 78.709412%, 81.639099%)" fill-opacity="1" d="M 2039.570312 2210.730469 C 2039.570312 2210.730469 2052.039062 2208.144531 2068.691406 2204.484375 C 2074.671875 2203.167969 2081.070312 2201.617188 2087.699219 2200.347656 C 2091.878906 2199.546875 2096.140625 2198.960938 2100.328125 2198.320312 C 2106.960938 2197.3125 2113.320312 2196.464844 2119.179688 2194.980469 C 2126.671875 2193.085938 2133 2190.851562 2137.609375 2187.074219 C 2133.691406 2193.386719 2126.839844 2198.832031 2118.03125 2203.453125 C 2113.148438 2206.011719 2107.828125 2208.203125 2102.148438 2209.929688 C 2098.121094 2211.15625 2093.941406 2212.121094 2089.761719 2212.738281 C 2085.511719 2213.363281 2081.269531 2213.578125 2077.160156 2213.679688 C 2071.761719 2213.8125 2066.710938 2213.640625 2062.039062 2213.332031 C 2048.671875 2212.457031 2039.570312 2210.730469 2039.570312 2210.730469 "/>
<path fill-rule="evenodd" fill="rgb(62.304688%, 78.709412%, 81.639099%)" fill-opacity="1" d="M 2040.921875 2163.738281 C 2040.921875 2163.738281 2048.148438 2158.917969 2058.378906 2151.632812 C 2061.558594 2149.367188 2064.910156 2146.9375 2068.53125 2144.378906 C 2070.71875 2142.835938 2072.910156 2141.214844 2075.25 2139.714844 C 2078.261719 2137.78125 2081.371094 2135.9375 2084.460938 2134.097656 C 2089.289062 2131.226562 2093.988281 2128.613281 2098.230469 2125.519531 C 2103.339844 2121.796875 2107.679688 2118.191406 2110.738281 2113.679688 C 2109.671875 2118.820312 2107.46875 2123.746094 2104.21875 2128.808594 C 2102.25 2131.878906 2099.949219 2134.71875 2097.359375 2137.578125 C 2094.898438 2140.289062 2092.261719 2142.84375 2089.359375 2145.214844 C 2087.480469 2146.753906 2085.488281 2148.179688 2083.429688 2149.449219 C 2080.28125 2151.382812 2077.011719 2152.988281 2073.769531 2154.425781 C 2071.488281 2155.4375 2069.269531 2156.3125 2067.039062 2157.070312 C 2052.378906 2162.070312 2040.921875 2163.738281 2040.921875 2163.738281 "/>
<path fill-rule="evenodd" fill="rgb(62.304688%, 78.709412%, 81.639099%)" fill-opacity="1" d="M 2033.03125 2255.621094 C 2033.03125 2255.621094 2044.078125 2255.921875 2059.761719 2255.367188 C 2065.171875 2255.175781 2071.011719 2254.898438 2077.199219 2254.523438 C 2079.558594 2254.382812 2081.941406 2254.230469 2084.359375 2254.132812 C 2086.71875 2254.035156 2089.101562 2253.957031 2091.488281 2253.921875 C 2096.261719 2253.851562 2101 2253.832031 2105.75 2253.566406 C 2116.679688 2252.960938 2127.011719 2251.632812 2136.109375 2247.3125 C 2131.410156 2251.773438 2126.039062 2255.363281 2119.871094 2258.363281 C 2115.910156 2260.289062 2111.789062 2261.796875 2107.449219 2263.097656 C 2103.21875 2264.367188 2098.910156 2265.351562 2094.511719 2265.988281 C 2091.601562 2266.410156 2088.671875 2266.660156 2085.761719 2266.710938 C 2081.300781 2266.792969 2076.910156 2266.480469 2072.691406 2266.003906 C 2069.710938 2265.671875 2066.859375 2265.230469 2064.101562 2264.679688 C 2045.839844 2261.03125 2033.03125 2255.621094 2033.03125 2255.621094 "/>
<path fill-rule="evenodd" fill="rgb(62.304688%, 78.709412%, 81.639099%)" fill-opacity="1" d="M 2023.230469 2296.332031 C 2023.230469 2296.332031 2034.691406 2299.382812 2050.78125 2302.671875 C 2056.421875 2303.824219 2062.519531 2305 2068.929688 2306.132812 C 2071.398438 2306.570312 2073.898438 2307.003906 2076.410156 2307.488281 C 2078.871094 2307.964844 2081.339844 2308.453125 2083.800781 2308.976562 C 2088.78125 2310.039062 2093.679688 2311.113281 2098.570312 2311.863281 C 2110.359375 2313.683594 2121.378906 2314.128906 2130.839844 2310.214844 C 2123.949219 2315.84375 2115.199219 2319.171875 2105.21875 2320.769531 C 2099.191406 2321.738281 2092.890625 2321.996094 2086.480469 2321.582031 C 2081.851562 2321.285156 2077.210938 2320.613281 2072.699219 2319.5625 C 2068.121094 2318.492188 2063.730469 2316.996094 2059.53125 2315.402344 C 2054.03125 2313.3125 2049.011719 2311.015625 2044.460938 2308.71875 C 2031.5 2302.179688 2023.230469 2296.332031 2023.230469 2296.332031 "/>
<path fill-rule="evenodd" fill="rgb(62.304688%, 78.709412%, 81.639099%)" fill-opacity="1" d="M 2011.871094 2326.914062 C 2011.871094 2326.914062 2023.519531 2331.097656 2040.210938 2335.78125 C 2046.019531 2337.414062 2052.328125 2339.089844 2059.011719 2340.734375 C 2061.570312 2341.363281 2064.160156 2341.988281 2066.769531 2342.664062 C 2069.320312 2343.324219 2071.890625 2343.996094 2074.460938 2344.707031 C 2079.589844 2346.128906 2084.691406 2347.550781 2089.839844 2348.675781 C 2101.769531 2351.277344 2113.308594 2352.667969 2124.160156 2350.1875 C 2117.890625 2353.683594 2111.039062 2355.925781 2103.53125 2357.199219 C 2098.730469 2358.011719 2093.851562 2358.3125 2088.820312 2358.300781 C 2083.929688 2358.285156 2079.019531 2357.9375 2074.140625 2357.1875 C 2070.910156 2356.695312 2067.71875 2356.015625 2064.601562 2355.144531 C 2059.839844 2353.8125 2055.269531 2352.097656 2050.910156 2350.265625 C 2047.851562 2348.976562 2044.949219 2347.613281 2042.179688 2346.164062 C 2023.980469 2336.679688 2011.871094 2326.914062 2011.871094 2326.914062 "/>
<path fill-rule="evenodd" fill="rgb(62.304688%, 78.709412%, 81.639099%)" fill-opacity="1" d="M 1997.859375 2360.746094 C 1997.859375 2360.746094 2007.539062 2365.96875 2022.859375 2371.558594 C 2027.949219 2373.414062 2033.558594 2375.265625 2039.699219 2377.082031 C 2041.980469 2377.757812 2044.308594 2378.417969 2046.691406 2379.136719 C 2048.960938 2379.820312 2051.28125 2380.523438 2053.621094 2381.265625 C 2058.148438 2382.695312 2062.738281 2384.210938 2067.601562 2385.425781 C 2071.648438 2386.441406 2075.699219 2387.398438 2079.980469 2388.128906 C 2086.28125 2389.207031 2092.558594 2389.992188 2099.339844 2390.003906 C 2092.71875 2392.191406 2086.351562 2393.648438 2079.820312 2394.433594 C 2075.210938 2394.988281 2070.75 2395.128906 2066.28125 2395.015625 C 2061.621094 2394.898438 2057.109375 2394.472656 2052.730469 2393.683594 C 2049.691406 2393.136719 2046.75 2392.40625 2043.929688 2391.492188 C 2039.46875 2390.042969 2035.308594 2388.222656 2031.429688 2386.28125 C 2028.640625 2384.882812 2026.03125 2383.421875 2023.589844 2381.871094 C 2007.011719 2371.351562 1997.859375 2360.746094 1997.859375 2360.746094 "/>
<path fill-rule="evenodd" fill="rgb(62.304688%, 78.709412%, 81.639099%)" fill-opacity="1" d="M 1982.929688 2391.441406 C 1982.929688 2391.441406 1992.371094 2396.171875 2007.03125 2401.65625 C 2011.929688 2403.488281 2017.300781 2405.363281 2023.140625 2407.269531 C 2025.320312 2407.984375 2027.539062 2408.695312 2029.800781 2409.46875 C 2031.960938 2410.214844 2034.160156 2410.980469 2036.378906 2411.800781 C 2040.679688 2413.394531 2045.011719 2415.09375 2049.570312 2416.546875 C 2053.421875 2417.769531 2057.230469 2418.945312 2061.25 2419.929688 C 2067.289062 2421.40625 2073.238281 2422.601562 2079.640625 2423.050781 C 2073.261719 2424.773438 2067.078125 2425.816406 2060.679688 2426.210938 C 2056.269531 2426.484375 2052 2426.378906 2047.691406 2426.042969 C 2043.28125 2425.695312 2038.988281 2425.085938 2034.808594 2424.136719 C 2031.960938 2423.488281 2029.179688 2422.675781 2026.519531 2421.691406 C 2022.328125 2420.148438 2018.421875 2418.265625 2014.769531 2416.296875 C 2012.140625 2414.882812 2009.699219 2413.421875 2007.398438 2411.878906 C 1991.800781 2401.449219 1982.929688 2391.441406 1982.929688 2391.441406 "/>
<path fill-rule="evenodd" fill="rgb(62.304688%, 78.709412%, 81.639099%)" fill-opacity="1" d="M 1968.210938 2417.84375 C 1968.210938 2417.84375 1975.78125 2423.007812 1987.078125 2429.421875 C 1990.949219 2431.617188 1995.148438 2433.878906 1999.660156 2436.21875 C 2001.359375 2437.101562 2003.089844 2437.980469 2004.820312 2438.921875 C 2006.488281 2439.835938 1986.628906 2440.757812 1984.96875 2439.058594 C 1974.089844 2427.976562 1968.210938 2417.84375 1968.210938 2417.84375 "/>
<path fill-rule="evenodd" fill="rgb(79.296875%, 90.625%, 89.451599%)" fill-opacity="1" d="M 2125.769531 2441.667969 C 2125.769531 2441.667969 2137.679688 2446.78125 2160.808594 2441.121094 C 2220.089844 2426.613281 2327.921875 2392.464844 2343.929688 2333.3125 C 2362.820312 2263.5 2227.890625 2363.324219 2236.121094 2315.203125 C 2244.351562 2267.082031 2369.871094 2202.519531 2355.421875 2162.574219 C 2340.96875 2122.632812 2253.738281 2207.351562 2237.46875 2186.996094 C 2221.191406 2166.640625 2317.828125 2068.445312 2290.519531 2019.976562 C 2263.210938 1971.5 2242.769531 2054.703125 2210.480469 2118.058594 C 2178.191406 2181.414062 2142.679688 2093.722656 2103.019531 2103.667969 C 2048.960938 2117.230469 2151.78125 2229.5 2123.820312 2273.707031 C 2098.039062 2314.464844 2031.578125 2148.082031 2016.839844 2257.898438 C 2003.039062 2360.675781 2067.871094 2416.515625 2102.019531 2438.398438 C 2113.800781 2445.945312 2125.769531 2441.667969 2125.769531 2441.667969 "/>
<path fill-rule="evenodd" fill="rgb(62.304688%, 78.709412%, 81.639099%)" fill-opacity="1" d="M 2145.089844 2393.679688 C 2154.089844 2392.722656 2190.46875 2388.488281 2225.71875 2379.109375 C 2245.289062 2373.902344 2264.5 2367.121094 2278.46875 2358.414062 C 2278.878906 2358.152344 2279.398438 2358.246094 2279.628906 2358.625 C 2279.851562 2359.003906 2279.699219 2359.523438 2279.289062 2359.785156 C 2265.289062 2368.847656 2245.949219 2376.078125 2226.199219 2381.710938 C 2188.558594 2392.449219 2149.519531 2397.355469 2143.71875 2398.050781 C 2138.140625 2415.832031 2133.691406 2430.171875 2130.859375 2439.316406 C 2130.46875 2440.578125 2126.289062 2440.023438 2126.578125 2439.113281 C 2130.371094 2427.179688 2137.171875 2405.835938 2145.738281 2379.3125 C 2142.03125 2376.433594 2111.019531 2352.035156 2085.019531 2321.5625 C 2072.378906 2306.746094 2060.929688 2290.5 2054.351562 2274.59375 C 2054.179688 2274.183594 2054.390625 2273.679688 2054.828125 2273.464844 C 2055.269531 2273.25 2055.761719 2273.40625 2055.941406 2273.816406 C 2062.738281 2289.417969 2074.410156 2305.265625 2087.210938 2319.683594 C 2111.5 2347.035156 2139.898438 2369.222656 2147.199219 2374.773438 C 2159.53125 2336.65625 2175.21875 2288.75 2190.789062 2242.832031 C 2191.511719 2240.730469 2192.21875 2238.632812 2192.929688 2236.535156 C 2192.640625 2236.402344 2192.371094 2236.195312 2192.179688 2235.917969 L 2126.878906 2141.878906 C 2126.621094 2141.519531 2126.738281 2140.992188 2127.128906 2140.703125 C 2127.53125 2140.414062 2128.058594 2140.472656 2128.308594 2140.828125 L 2194.621094 2231.570312 C 2212.070312 2180.472656 2229.011719 2133.089844 2240.539062 2106.089844 C 2240.730469 2105.648438 2241.230469 2105.402344 2241.671875 2105.535156 C 2242.101562 2105.675781 2242.300781 2106.140625 2242.109375 2106.582031 C 2229.960938 2135.589844 2211.761719 2188.066406 2193.421875 2243.421875 C 2191.449219 2249.355469 2189.480469 2255.324219 2187.53125 2261.285156 C 2197.421875 2256.691406 2236.199219 2238.457031 2265.421875 2221.472656 C 2279.648438 2213.203125 2291.609375 2205.257812 2296.761719 2199.332031 C 2297.078125 2198.960938 2297.621094 2198.878906 2297.96875 2199.148438 C 2298.308594 2199.421875 2298.339844 2199.945312 2298.019531 2200.316406 C 2292.890625 2206.449219 2280.890625 2214.820312 2266.550781 2223.53125 C 2233.019531 2243.890625 2186.679688 2266.195312 2186.679688 2266.195312 C 2186.410156 2266.324219 2186.121094 2266.398438 2185.839844 2266.417969 C 2170.671875 2312.730469 2155.960938 2359.078125 2145.089844 2393.679688 "/>
<path fill-rule="evenodd" fill="rgb(3.100586%, 64.256287%, 86.71875%)" fill-opacity="1" d="M 2560.539062 2442.132812 C 2560.539062 2437.074219 2558.289062 2432.972656 2555.519531 2432.972656 C 2445.238281 2432.972656 552.714844 2432.972656 442.4375 2432.972656 C 439.664062 2432.972656 437.417969 2437.074219 437.417969 2442.132812 C 437.417969 2447.191406 439.664062 2451.292969 442.4375 2451.292969 C 552.714844 2451.292969 2445.238281 2451.292969 2555.519531 2451.292969 C 2558.289062 2451.292969 2560.539062 2447.191406 2560.539062 2442.132812 "/>
</svg>
