<svg xmlns="http://www.w3.org/2000/svg" xmlns:xlink="http://www.w3.org/1999/xlink" width="500" zoomAndPan="magnify" viewBox="0 0 375 374.999991" height="500" preserveAspectRatio="xMidYMid meet" version="1.2"><g id="ddb912bca7"><path style=" stroke:none;fill-rule:nonzero;fill:#113f5b;fill-opacity:1;" d="M 332.707031 210.972656 L 310.882812 85.902344 C 309.023438 75.242188 299.082031 67.382812 287.441406 67.382812 L 282.054688 67.382812 L 285.125 103.1875 C 285.503906 107.679688 283.992188 112.042969 280.839844 115.460938 C 277.6875 118.878906 273.296875 120.980469 268.5 121.328125 C 267.988281 121.382812 267.476562 121.382812 266.964844 121.382812 C 257.589844 121.382812 249.640625 114.546875 248.910156 105.851562 L 245.625 67.382812 L 141.808594 67.382812 L 138.304688 105.929688 C 137.523438 114.601562 129.574219 121.382812 120.199219 121.382812 C 119.714844 121.382812 119.230469 121.355469 118.664062 121.328125 C 108.667969 120.550781 101.230469 112.367188 102.09375 103.105469 L 105.324219 67.410156 L 94.359375 67.410156 C 82.613281 67.410156 72.640625 75.375 70.890625 86.171875 L 30.203125 337.257812 C 30.179688 337.472656 30.179688 337.660156 30.152344 337.875 C 238.457031 375.109375 296.765625 215.121094 296.765625 215.121094 C 294.769531 283.765625 262.949219 330.203125 223.449219 361.539062 C 295.148438 346.464844 345.050781 281.585938 332.707031 210.972656 Z M 332.707031 210.972656 "/><path style=" stroke:none;fill-rule:nonzero;fill:#f4f4f4;fill-opacity:1;" d="M 248.15625 212.160156 L 161.800781 212.160156 C 165.359375 227.53125 178.828125 236.925781 198.203125 236.925781 C 206.90625 236.925781 214.046875 235.285156 220.351562 231.972656 C 226.710938 228.632812 234.683594 229.820312 239.535156 234.90625 C 245.707031 241.394531 244.464844 251.703125 236.542969 256.28125 C 226.007812 262.417969 212.832031 265.570312 197.257812 265.570312 C 153.285156 265.570312 124.699219 238.730469 124.699219 202.035156 C 124.699219 165.128906 153.773438 138.53125 192.542969 138.53125 C 229.890625 138.53125 258.71875 162.839844 258.71875 202.496094 C 258.71875 202.523438 258.71875 202.546875 258.71875 202.574219 C 258.691406 207.933594 253.871094 212.160156 248.15625 212.160156 Z M 161.316406 191.296875 L 223.960938 191.296875 C 221.375 175.707031 209.304688 165.613281 192.761719 165.613281 C 175.972656 165.613281 163.929688 175.492188 161.316406 191.296875 Z M 161.316406 191.296875 "/><path style=" stroke:none;fill-rule:nonzero;fill:#2fac4a;fill-opacity:1;" d="M 276.097656 103.859375 L 271.734375 52.980469 C 269.175781 23.367188 243.117188 0.753906 211.136719 0.375 L 177.96875 0 C 177.699219 0 177.457031 0 177.1875 0 C 145.390625 0 118.5 22.855469 115.835938 52.359375 L 111.144531 103.832031 C 110.714844 108.460938 114.433594 112.554688 119.445312 112.957031 C 119.714844 112.984375 119.957031 112.984375 120.226562 112.984375 C 124.886719 112.984375 128.875 109.644531 129.277344 105.257812 L 133.96875 53.785156 C 135.855469 33.03125 154.605469 16.878906 177.132812 16.878906 C 177.347656 16.878906 177.5625 16.878906 177.777344 16.878906 L 210.949219 17.257812 C 233.5 17.523438 251.875 33.460938 253.652344 54.324219 L 258.019531 105.175781 C 258.394531 109.59375 262.332031 112.957031 267.019531 112.957031 C 267.289062 112.957031 267.53125 112.957031 267.800781 112.929688 C 272.757812 112.582031 276.476562 108.515625 276.097656 103.859375 Z M 276.097656 103.859375 "/></g></svg>